<?xml version="1.0" standalone="no"?>
<!DOCTYPE svg PUBLIC "-//W3C//DTD SVG 20010904//EN"
 "http://www.w3.org/TR/2001/REC-SVG-20010904/DTD/svg10.dtd">
<svg version="1.0" xmlns="http://www.w3.org/2000/svg"
 width="400.000000pt" height="400.000000pt" viewBox="0 0 400.000000 400.000000"
 preserveAspectRatio="xMidYMid meet">
<metadata>
Created by potrace 1.14, written by Peter Selinger 2001-2017
</metadata>
<g transform="translate(0.000000,400.000000) scale(0.100000,-0.100000)"
fill="#000000" stroke="none">
<path d="M1726 3520 c-48 -4 -60 -9 -67 -26 -13 -35 15 -64 62 -64 21 0 39 -3
40 -7 1 -5 2 -120 3 -257 0 -158 -3 -250 -9 -252 -5 -1 -27 -5 -48 -7 -21 -3
-41 -7 -44 -11 -11 -11 -5 -58 8 -67 8 -5 139 -9 291 -9 254 0 278 1 286 18 5
9 8 61 8 116 -1 82 -4 100 -20 111 -11 9 -26 11 -39 6 -20 -7 -22 -17 -25 -85
l-3 -76 -155 0 -154 0 1 124 1 124 46 4 c82 6 102 0 102 -28 0 -42 18 -66 43
-58 12 4 25 12 29 18 12 17 9 195 -2 217 -21 39 -70 10 -70 -42 l0 -29 -75 0
-74 0 0 95 0 95 154 0 154 0 3 -71 c3 -64 5 -73 26 -80 16 -6 27 -4 41 10 15
15 18 33 17 114 -1 53 -6 101 -12 107 -11 11 -417 19 -518 10z"/>
<path d="M562 3503 c-20 -38 1 -73 43 -73 20 0 20 -6 20 -260 l0 -260 -22 0
c-41 0 -62 -59 -29 -82 6 -4 58 -8 116 -8 58 0 110 4 116 8 40 28 8 82 -50 82
l-33 0 1 118 1 117 135 0 135 0 1 -117 2 -118 -34 0 c-58 0 -91 -54 -50 -82 6
-4 58 -8 116 -8 108 0 126 4 130 30 6 38 -1 49 -33 55 l-32 6 0 260 c-1 254 0
259 20 259 42 0 63 35 43 73 -7 15 -24 17 -121 17 -62 0 -117 -4 -123 -8 -18
-11 -21 -47 -5 -65 8 -11 28 -17 51 -17 l38 0 -1 -98 0 -99 -137 0 -137 -1 0
99 -1 99 32 0 c43 0 76 24 71 52 -3 12 -10 25 -17 30 -7 4 -63 8 -125 8 -97 0
-114 -2 -121 -17z"/>
<path d="M2790 3501 c-5 -11 -10 -24 -10 -30 0 -17 31 -41 53 -41 18 0 40 -32
119 -168 l97 -168 -1 -92 -1 -92 -54 0 c-65 0 -64 0 -85 -11 -22 -12 -23 -42
-2 -63 13 -13 45 -16 193 -16 187 0 201 3 201 46 0 31 -15 38 -90 44 l-64 5 0
86 0 86 99 171 c77 134 104 172 120 172 32 0 48 15 48 45 0 15 -7 31 -14 36
-8 5 -61 8 -119 7 l-105 -3 -3 -28 c-4 -35 13 -57 44 -57 29 0 30 -9 7 -41
-10 -13 -24 -35 -31 -48 -8 -13 -22 -38 -31 -55 -10 -17 -27 -46 -38 -64 l-21
-34 -65 119 -65 118 27 6 c40 9 51 17 51 43 0 40 -17 46 -137 46 -101 0 -113
-2 -123 -19z"/>
<path d="M1879 2324 c-56 -17 -142 -91 -170 -147 -54 -105 -62 -253 -20 -366
65 -172 251 -253 419 -181 66 28 134 104 163 180 27 69 33 219 13 287 -29 95
-90 171 -172 214 -54 27 -166 34 -233 13z m185 -94 c82 -40 128 -149 121 -282
-7 -124 -50 -203 -129 -239 -100 -46 -207 2 -257 113 -19 44 -23 70 -23 153 1
104 16 155 64 213 49 59 151 78 224 42z"/>
<path d="M550 2301 c-21 -40 -1 -71 47 -71 11 0 26 -15 38 -37 11 -20 55 -96
97 -167 l78 -131 -2 -92 -1 -93 -63 0 c-82 0 -109 -23 -84 -71 10 -18 23 -19
193 -19 193 0 207 3 207 46 0 31 -15 38 -90 44 l-65 5 2 90 1 90 99 167 c75
128 103 168 118 168 32 0 48 15 48 45 0 15 -7 31 -14 36 -16 10 -189 12 -213
3 -19 -7 -21 -55 -4 -72 7 -7 23 -12 36 -12 29 0 32 9 -47 -128 -71 -121 -65
-119 -108 -42 -11 19 -36 65 -57 103 l-38 67 29 0 c34 0 53 16 53 45 0 39 -18
45 -137 45 -101 0 -113 -2 -123 -19z"/>
<path d="M2783 2308 c-5 -7 -9 -24 -9 -38 1 -19 9 -27 35 -36 l35 -11 1 -214
c1 -231 6 -254 62 -327 73 -97 284 -106 375 -18 60 58 72 112 75 331 1 105 2
200 3 211 0 15 8 23 29 27 31 7 43 31 30 65 -8 22 -12 23 -130 20 -114 -3
-122 -4 -130 -25 -12 -32 12 -55 61 -62 l44 -6 1 -165 c1 -253 -14 -313 -85
-351 -81 -44 -185 -3 -221 86 -7 19 -12 103 -13 233 l-2 202 29 0 c56 0 79 28
61 74 -5 13 -26 16 -124 16 -82 0 -120 -4 -127 -12z"/>
<path d="M681 1122 c-58 -1 -110 -7 -117 -12 -14 -13 -10 -60 8 -71 7 -5 22
-9 33 -9 20 0 20 -6 20 -260 l0 -260 -22 0 c-43 0 -64 -70 -26 -84 8 -4 82 -6
164 -7 177 0 247 15 309 68 164 141 160 450 -8 574 -51 38 -107 55 -187 58
-33 2 -62 3 -65 4 -3 1 -52 1 -109 -1z m259 -115 c81 -35 122 -109 125 -227 6
-175 -78 -266 -250 -271 -103 -4 -92 -34 -92 259 0 249 1 257 21 262 31 9 157
-7 196 -23z"/>
<path d="M1787 1120 c-125 -5 -143 -13 -131 -55 9 -27 8 -27 51 -32 21 -2 43
-5 48 -7 6 -2 10 -97 9 -257 l0 -254 -49 -7 c-26 -4 -51 -12 -55 -18 -9 -15
-1 -52 14 -62 6 -4 136 -8 288 -8 254 0 278 1 286 17 7 14 9 147 3 211 -2 18
-43 31 -63 20 -15 -7 -18 -22 -18 -83 l0 -75 -155 0 -155 0 1 124 1 124 41 4
c23 1 57 2 75 0 27 -3 32 -7 32 -30 0 -35 13 -55 39 -59 32 -5 41 26 41 136 0
89 -2 101 -19 111 -25 13 -27 13 -45 -6 -9 -8 -16 -29 -16 -45 l0 -29 -75 0
-75 0 1 95 1 95 153 0 154 0 3 -71 c3 -64 5 -73 26 -80 16 -6 27 -4 41 10 15
15 18 33 17 114 -1 53 -6 101 -12 107 -11 11 -283 17 -457 10z"/>
<path d="M2755 1105 c-3 -8 -7 -22 -10 -30 -5 -18 21 -45 44 -45 14 0 42 -61
131 -290 66 -168 122 -297 134 -308 30 -28 84 -24 105 7 14 20 74 173 205 517
23 62 31 72 55 77 31 7 42 31 30 65 -8 21 -14 22 -128 22 -66 0 -126 -3 -135
-6 -10 -4 -16 -18 -16 -39 0 -38 12 -45 76 -45 24 0 44 -3 44 -7 0 -9 -147
-399 -168 -446 l-18 -39 -95 244 -95 243 49 5 c47 6 67 20 67 51 0 33 -22 39
-147 39 -101 0 -124 -3 -128 -15z"/>
</g>
</svg>
